<?xml version="1.0" encoding="UTF-8" standalone="no"?>
<!-- Created with Inkscape (http://www.inkscape.org/) -->

<svg
   xmlns:dc="http://purl.org/dc/elements/1.1/"
   xmlns:cc="http://creativecommons.org/ns#"
   xmlns:rdf="http://www.w3.org/1999/02/22-rdf-syntax-ns#"
   xmlns:svg="http://www.w3.org/2000/svg"
   xmlns="http://www.w3.org/2000/svg"
   xmlns:xlink="http://www.w3.org/1999/xlink"
   xmlns:sodipodi="http://sodipodi.sourceforge.net/DTD/sodipodi-0.dtd"
   xmlns:inkscape="http://www.inkscape.org/namespaces/inkscape"
   id="svg3235"
   sodipodi:docname="Desktop_computer_clipart_-_Yellow_theme.svg"
   viewBox="0 0 281.26118 202.99889"
   sodipodi:version="0.32"
   version="1.0"
   inkscape:output_extension="org.inkscape.output.svg.inkscape"
   y="0"
   x="0"
   inkscape:version="0.91 r13725"
   width="281.26117"
   height="202.99889">
  <sodipodi:namedview
     id="base"
     bordercolor="#666666"
     inkscape:pageshadow="2"
     guidetolerance="10.0"
     pagecolor="#ffffff"
     gridtolerance="10.0"
     inkscape:zoom="2.9"
     objecttolerance="10.0"
     borderopacity="1.0"
     inkscape:current-layer="svg3235"
     inkscape:cx="114.33363"
     inkscape:cy="107.65045"
     inkscape:window-y="-8"
     inkscape:window-x="-8"
     inkscape:window-height="1017"
     showgrid="false"
     inkscape:pageopacity="0.0"
     inkscape:window-width="1920"
     fit-margin-top="0"
     fit-margin-left="0"
     fit-margin-right="0"
     fit-margin-bottom="0"
     inkscape:window-maximized="1" />
  <defs
     id="defs3237">
    <linearGradient
       id="linearGradient3000">
      <stop
         id="stop3001"
         style="stop-color:#000000;stop-opacity:.39216"
         offset="0" />
      <stop
         id="stop3002"
         style="stop-color:#000000;stop-opacity:0"
         offset="1" />
    </linearGradient>
    <linearGradient
       id="linearGradient2991">
      <stop
         id="stop2992"
         style="stop-color:#fff700"
         offset="0" />
      <stop
         id="stop2993"
         style="stop-color:#ff8e00"
         offset="1" />
    </linearGradient>
    <linearGradient
       id="linearGradient2979">
      <stop
         id="stop2980"
         style="stop-color:#dee5f4"
         offset="0" />
      <stop
         id="stop2981"
         style="stop-color:#747a92"
         offset="1" />
    </linearGradient>
    <linearGradient
       id="linearGradient2984">
      <stop
         id="stop2985"
         style="stop-color:#ffffff"
         offset="0" />
      <stop
         id="stop2986"
         style="stop-color:#ffffff;stop-opacity:0"
         offset="1" />
    </linearGradient>
    <linearGradient
       id="linearGradient1871"
       y2="199.21001"
       xlink:href="#linearGradient2984"
       gradientUnits="userSpaceOnUse"
       y1="85.529999"
       gradientTransform="matrix(1.3066,0,0,0.76534,-23.29804,-62.769255)"
       x2="61.890999"
       x1="59.82" />
    <radialGradient
       id="radialGradient1908"
       xlink:href="#linearGradient3000"
       gradientUnits="userSpaceOnUse"
       cy="1101"
       cx="48.594002"
       gradientTransform="matrix(3.6932,0.22184,-0.047654,0.79336,-9.3765,-752.5)"
       r="31.846001" />
    <linearGradient
       id="linearGradient1917"
       y2="73.231003"
       xlink:href="#linearGradient2979"
       gradientUnits="userSpaceOnUse"
       y1="198.10001"
       gradientTransform="matrix(0.97736,0,0,1.0232,-23.29704,-62.769255)"
       x2="171.14999"
       x1="216.48" />
    <linearGradient
       id="linearGradient1918"
       y2="76.862999"
       xlink:href="#linearGradient3000"
       gradientUnits="userSpaceOnUse"
       y1="200.60001"
       gradientTransform="matrix(0.81623,0,0,1.2251,-23.29704,-62.769255)"
       x2="139.03"
       x1="146.52" />
    <linearGradient
       id="linearGradient1919"
       y2="76.862999"
       xlink:href="#linearGradient3000"
       gradientUnits="userSpaceOnUse"
       y1="200.60001"
       gradientTransform="matrix(0.87731,0,0,1.3541,-33.24674,-78.704255)"
       x2="139.03"
       x1="146.52" />
    <linearGradient
       id="linearGradient1920"
       y2="147.84"
       xlink:href="#linearGradient2984"
       gradientUnits="userSpaceOnUse"
       y1="50.769001"
       gradientTransform="matrix(0.84772,0,0,1.1796,-23.29704,-62.769255)"
       x2="231.59"
       x1="233.42" />
    <linearGradient
       id="linearGradient1921"
       y2="160.49001"
       xlink:href="#linearGradient2979"
       gradientUnits="userSpaceOnUse"
       y1="128.38"
       gradientTransform="matrix(1.5983,0,0,0.62567,-23.29704,-62.769255)"
       x2="123.7"
       x1="122.32" />
    <linearGradient
       id="linearGradient1922"
       y2="190.33"
       xlink:href="#linearGradient2979"
       gradientUnits="userSpaceOnUse"
       y1="158.71001"
       gradientTransform="matrix(1.6066,0,0,0.62244,-23.29704,-62.769255)"
       x2="122.92"
       x1="121.57" />
    <linearGradient
       id="linearGradient1923"
       y2="125.26"
       xlink:href="#linearGradient3000"
       gradientUnits="userSpaceOnUse"
       y1="166.57001"
       gradientTransform="matrix(0.92135994,0,0,1.3019,-66.76004,-62.769255)"
       x2="256.73999"
       x1="271.48001" />
    <radialGradient
       id="radialGradient1955"
       xlink:href="#linearGradient3000"
       gradientUnits="userSpaceOnUse"
       cy="1017.4"
       cx="75.537003"
       gradientTransform="matrix(3.0648704,-0.3443831,0.05680591,0.57975168,-120.249,-392.36)"
       r="48.549" />
    <linearGradient
       id="linearGradient1956"
       y2="1007.7"
       xlink:href="#linearGradient2991"
       gradientUnits="userSpaceOnUse"
       y1="1007.7"
       gradientTransform="matrix(3.2678944,0,0,0.8998413,-85.06604,-748.09025)"
       x2="112.3"
       x1="80.622002" />
    <linearGradient
       id="linearGradient1957"
       y2="1020"
       xlink:href="#linearGradient2979"
       gradientUnits="userSpaceOnUse"
       y1="991.42999"
       gradientTransform="matrix(3.2678944,0,0,0.8998413,-85.06604,-748.09025)"
       x2="89.492996"
       x1="111.29" />
    <linearGradient
       id="linearGradient1958"
       y2="1005.5"
       xlink:href="#linearGradient2991"
       gradientUnits="userSpaceOnUse"
       y1="1036.9"
       gradientTransform="matrix(3.3078492,0,0,0.88895232,-85.06604,-749.50025)"
       x2="91.325996"
       x1="97.777" />
    <linearGradient
       id="linearGradient1959"
       y2="390.88"
       xlink:href="#linearGradient2979"
       gradientUnits="userSpaceOnUse"
       y1="438.17001"
       gradientTransform="matrix(1.7814,0,0,0.56137,-23.29704,-62.770255)"
       x2="65.911003"
       x1="95.445" />
    <linearGradient
       id="linearGradient1960"
       y2="522.29999"
       xlink:href="#linearGradient2984"
       gradientUnits="userSpaceOnUse"
       y1="404.28"
       gradientTransform="matrix(1.9647,0,0,0.50897,-23.29704,-62.770255)"
       x2="87.982002"
       x1="52.589001" />
    <linearGradient
       id="linearGradient1961"
       y2="298.51999"
       xlink:href="#linearGradient2979"
       gradientUnits="userSpaceOnUse"
       y1="270.25"
       gradientTransform="matrix(1.3371,0,0,0.74787,-23.29704,-62.770255)"
       x2="180.99001"
       x1="177.21001" />
    <linearGradient
       id="linearGradient1962"
       y2="716.90002"
       xlink:href="#linearGradient2984"
       gradientUnits="userSpaceOnUse"
       y1="704.07001"
       gradientTransform="matrix(2.3480756,0,0,1.2523184,-85.06604,-744.73025)"
       x2="129.53999"
       x1="129.28999" />
    <radialGradient
       id="radialGradient1971"
       xlink:href="#linearGradient3000"
       gradientUnits="userSpaceOnUse"
       cy="1101"
       cx="48.594002"
       gradientTransform="matrix(2.0284,-0.2679,0.17454,0.38067,-214.78,-276.47)"
       r="31.846001" />
    <linearGradient
       id="linearGradient1981"
       y2="172.33"
       xlink:href="#linearGradient2979"
       gradientUnits="userSpaceOnUse"
       y1="210.66"
       x2="79.454002"
       x1="85.998001"
       gradientTransform="translate(-23.29804,-62.769255)" />
    <linearGradient
       id="linearGradient1982"
       y2="79.391998"
       xlink:href="#linearGradient2979"
       gradientUnits="userSpaceOnUse"
       y1="176.59"
       gradientTransform="matrix(1.016,0,0,0.9843,-25.17304,-62.144255)"
       x2="69.297997"
       x1="79.260002" />
    <linearGradient
       id="linearGradient1983"
       y2="100.41"
       xlink:href="#linearGradient2979"
       gradientUnits="userSpaceOnUse"
       y1="65.556"
       gradientTransform="matrix(1.0158,0,0,0.98444,-23.29804,-62.769255)"
       x2="99.186996"
       x1="131.50999" />
    <linearGradient
       id="linearGradient1984"
       y2="79.391998"
       xlink:href="#linearGradient2979"
       gradientUnits="userSpaceOnUse"
       y1="176.59"
       gradientTransform="matrix(1.016,0,0,0.9843,-23.29804,-62.769255)"
       x2="69.297997"
       x1="79.260002" />
    <linearGradient
       id="linearGradient1985"
       y2="77.000999"
       xlink:href="#linearGradient2991"
       gradientUnits="userSpaceOnUse"
       y1="167.86"
       gradientTransform="matrix(1.0467,0,0,0.95536,-23.29804,-62.769255)"
       x2="48.997002"
       x1="52.874001" />
    <linearGradient
       id="linearGradient1986"
       y2="437.70999"
       xlink:href="#linearGradient2984"
       gradientUnits="userSpaceOnUse"
       y1="462.63"
       gradientTransform="matrix(2.2844,0,0,0.43776,-23.29804,-62.769255)"
       x2="39.178001"
       x1="44.633999" />
  </defs>
  <path
     inkscape:connector-curvature="0"
     d="m 200.50296,146.93975 c -11.51,-0.96 -19.19,3.6 -29.74,3.36 -10.55,-0.24 -20.79,-2.72 -33.58,-2.88 -12.79,-0.16 -19.35,7.76 -41.25,3.36 -5.12,-1.03 14.95,-7.27 10.55,-11.51 -4.4,-4.24 -27.5,-3.92 -40.774,-12.95 -5.572,-3.8 11.514,-7.84 12.474,-15.83"
     style="fill:none;stroke:#000000;stroke-width:1.875;stroke-linejoin:round;stroke-opacity:0.19607999"
     id="path1941" />
  <path
     inkscape:connector-curvature="0"
     d="m 58.51296,168.04975 c -7.675,-3.04 -30.134,-8.81 -32.139,-11.99 -3.278,-5.2 30.7,-1.23 11.992,-10.56 -8.105,-4.04 -39.33499976,-2.15 -34.0579998,-5.75 5.277,-3.6 51.5719998,-7.16 63.0049998,-12.44 11.43,-5.28 5.65,-14.62 8.983,-22.61"
     style="fill:none;stroke:#000000;stroke-width:1.875;stroke-linejoin:round;stroke-opacity:0.19607999"
     id="path1940" />
  <path
     inkscape:connector-curvature="0"
     d="m 236.25318,145.37199 -56.91421,7.45938 44.91061,19.17147 56.74274,-13.23826 -44.73914,-13.39259 z"
     style="fill:url(#linearGradient1956);fill-rule:evenodd;stroke:url(#linearGradient1957);stroke-width:1.87496233;stroke-linecap:round;stroke-linejoin:bevel"
     id="path3141" />
  <path
     inkscape:connector-curvature="0"
     d="m 236.25318,143.96199 -56.91421,7.45938 44.91061,19.17147 56.74274,-13.23826 -44.73914,-13.39259 z"
     style="fill:url(#linearGradient1958);fill-rule:evenodd;stroke:#000000;stroke-width:0.93748116;stroke-linecap:round;stroke-linejoin:bevel"
     id="path3140" />
  <path
     inkscape:connector-curvature="0"
     d="m 202.27296,146.05975 c -11.51,-0.96 -19.19,3.6 -29.74,3.36 -10.56,-0.24 -20.79,-2.72 -33.58,-2.88 -12.79,-0.16 -19.35,7.75 -41.26,3.36 -5.11,-1.03 14.95,-7.28 10.56,-11.52 -4.4,-4.23 -27.5,-3.91 -40.776,-12.95 -5.573,-3.79 11.516,-7.83 12.476,-15.83"
     style="fill:none;stroke:#484c5f;stroke-width:1.875;stroke-linejoin:round"
     id="path3230" />
  <path
     inkscape:connector-curvature="0"
     d="m 60.28096,167.16975 c -7.675,-3.04 -30.134,-8.82 -32.139,-12 -3.278,-5.19 30.699,-1.22 11.992,-10.55 -8.105,-4.04 -39.33499976,-2.16 -34.0579998,-5.76 5.2759998,-3.59 51.5719998,-7.16 63.0039998,-12.43 11.433,-5.28 5.65,-14.63 8.983,-22.62"
     style="fill:none;stroke:#484c5f;stroke-width:1.875;stroke-linejoin:round"
     id="path3231" />
  <path
     inkscape:connector-curvature="0"
     d="m 41.03496,166.02975 1.746,16.95 38.072,19.53 125.63,-22.32 0.95,-7.99 -51.67,-21.49 -114.73,15.32 z"
     style="fill:url(#linearGradient1959);fill-rule:evenodd;stroke:#000000;stroke-width:0.9375"
     id="path3010" />
  <path
     inkscape:connector-curvature="0"
     d="m 43.01096,167.14975 1.437,14.46 36.585,18.89 123.98,-21.87 0.52,-5.32 -124.38,19.98 -38.142,-26.14 z"
     style="fill:#000000;fill-opacity:0.19607999;fill-rule:evenodd"
     id="path3013" />
  <path
     inkscape:connector-curvature="0"
     d="m 47.68296,167.58975 31.42,20.07 c 1.89,-23.85 116.37,-8 102.12,-23.56 l -25.32,-11.35 -108.22,14.84 z"
     style="fill:url(#linearGradient1960);fill-rule:evenodd"
     id="path3014" />
  <path
     inkscape:connector-curvature="0"
     d="m 237.45296,157.35975 c -6.46,0.57 -11.76,6.5 -25.05,0.51 -12.97,-5.84 -11.91,-4.66 -11.24,-7.95 0.6,-2.88 4.6,-11.28 19.47,-10.77 14.8,0.51 23.67,17.6 16.82,18.21 z"
     style="fill:url(#linearGradient1961);fill-rule:evenodd;stroke:#000000;stroke-width:0.9375"
     id="path3135" />
  <path
     inkscape:connector-curvature="0"
     d="m 229.13676,145.57676 c 0,3.17238 -4.83573,5.74458 -10.80324,5.74458 -5.95035,0 -10.78609,-2.5722 -10.78609,-5.74458 0,-3.18953 4.83574,-5.76173 10.78609,-5.76173 5.96751,0 10.80324,2.5722 10.80324,5.76173 z"
     style="fill:url(#linearGradient1962);fill-rule:evenodd"
     id="path3233" />
  <path
     inkscape:connector-curvature="0"
     d="m 145.36296,9.5607454 56.54,3.8789996 -3.42,122.340005 -52.46,7.76 -70.544,-17.2 -1.516,-108.680005 71.4,-8.0999996 z"
     style="fill:url(#linearGradient1917);fill-rule:evenodd;stroke:#000000;stroke-width:0.9375;stroke-linejoin:round"
     id="path352" />
  <path
     inkscape:connector-curvature="0"
     d="m 79.59296,55.150745 0.9,66.310005 59.24,12.3 -0.47,-86.060005 c -19.26,-16.892 -39.78,23.72 -59.67,7.45 z"
     style="fill:url(#linearGradient1918);fill-rule:evenodd"
     id="path353" />
  <path
     inkscape:connector-curvature="0"
     d="m 77.34296,51.630745 0.96,73.290005 63.68,13.59 -0.5,-95.120005 c -20.71,-18.668 -42.76,26.21 -64.14,8.24 z"
     style="fill:url(#linearGradient1919);fill-rule:evenodd"
     id="path1853" />
  <path
     inkscape:connector-curvature="0"
     d="m 148.05296,12.128745 -0.87,73.182 c 29.33,-32.59 28.29,14.33 50.11,-4.38 l 2.62,-65.674 -51.86,-3.128 z"
     style="fill:url(#linearGradient1920);fill-rule:evenodd"
     id="path2987" />
  <path
     inkscape:connector-curvature="0"
     d="m 154.18296,19.747745 -0.43,13.583 40.95,1.697 0.02,-12.907 -40.54,-2.373 z"
     style="fill:url(#linearGradient1921);fill-rule:evenodd;stroke:#000000;stroke-width:1.25;stroke-linejoin:bevel;stroke-opacity:0.39216003"
     id="path3005" />
  <path
     inkscape:connector-curvature="0"
     d="m 154.18296,38.180745 -0.44,14.59 40.55,0.35 0,-13.57 -40.11,-1.37 z"
     style="fill:url(#linearGradient1922);fill-rule:evenodd;stroke:#000000;stroke-width:1.25;stroke-linejoin:bevel;stroke-opacity:0.39216003"
     id="path3008" />
  <path
     inkscape:connector-curvature="0"
     d="m 194.13121,101.61075 c 0,17.25 -9.89588,31.24 -22.11878,31.24 -12.21091,0 -22.11878,-13.99 -22.11878,-31.24 0,-17.260005 9.90787,-31.260005 22.11878,-31.260005 12.2229,0 22.11878,14 22.11878,31.260005 z"
     style="fill:url(#linearGradient1923)"
     id="path1823" />
  <path
     inkscape:connector-curvature="0"
     d="m 45.48396,89.750745 -11.295,39.910005 0,6.07 24.304,12.16 36.459,-3.79 0,-6.08 -32.478,-8.97 8.171,-41.920005 -25.161,2.62 z"
     style="fill:url(#linearGradient1981);fill-rule:evenodd;stroke:#000000;stroke-width:0.9375;stroke-linejoin:round"
     id="path354" />
  <path
     inkscape:connector-curvature="0"
     d="m 45.48096,91.180745 5.206,1.53 -11.33,38.890005 18.067,8.27 0.306,6.43 -22.967,-11.03 0.307,-5.82 10.411,-38.270005 z"
     style="fill:#000000;fill-opacity:0.31097999;fill-rule:evenodd"
     id="path355" />
  <path
     inkscape:connector-curvature="0"
     d="m 1.0009602,1.0937454 109.3699998,2.449 6.08,97.2180046 -109.3799998,12.15 L 0.99996024,1.0907454 Z"
     style="fill:url(#linearGradient1982);fill-rule:evenodd;stroke:url(#linearGradient1983);stroke-width:2;stroke-linejoin:round"
     id="path1828" />
  <path
     inkscape:connector-curvature="0"
     d="M 2.8759602,0.46874538 112.24596,2.9177454 l 6.08,97.2230046 -109.3699998,12.15 -6.076,-111.82000462 z"
     style="fill:url(#linearGradient1984);fill-rule:evenodd;stroke:#000000;stroke-width:0.9375;stroke-linejoin:round"
     id="path356" />
  <path
     inkscape:connector-curvature="0"
     d="m 12.69396,9.6977454 5.247,87.6329996 90.951,-7.49 -3.5,-79.566 -92.698,-0.5769996 z"
     style="fill:url(#linearGradient1985);fill-rule:evenodd;stroke:#000000;stroke-width:1.875;stroke-linecap:round;stroke-linejoin:round;stroke-opacity:0.19607999"
     id="path357" />
  <path
     inkscape:connector-curvature="0"
     d="m 40.88796,131.60075 19.904,-1.23 28.03,7.49 -29.573,1.7 -18.361,-7.96 z"
     style="fill:url(#linearGradient1986);fill-rule:evenodd"
     id="path361" />
  <path
     inkscape:connector-curvature="0"
     d="m 18.33896,13.397745 2.469,48.133 c 12.548,-27.562 76.324,24.48 82.084,-12.34 l -1.85,-34.559 -82.703,-1.234 z"
     style="fill:url(#linearGradient1871);fill-rule:evenodd"
     id="path3003" />
  <metadata
     id="metadata3501">
    <rdf:RDF>
      <cc:Work>
        <dc:format>image/svg+xml</dc:format>
        <dc:type
           rdf:resource="http://purl.org/dc/dcmitype/StillImage" />
        <cc:license
           rdf:resource="http://creativecommons.org/publicdomain/zero/1.0/" />
        <dc:publisher>
          <cc:Agent
             rdf:about="http://openclipart.org/">
            <dc:title>Openclipart</dc:title>
          </cc:Agent>
        </dc:publisher>
        <dc:title>Computer</dc:title>
        <dc:date>2008-07-18T18:42:55</dc:date>
        <dc:description />
        <dc:source>https://openclipart.org/detail/17924/computer-by-aj</dc:source>
        <dc:creator>
          <cc:Agent>
            <dc:title>AJ</dc:title>
          </cc:Agent>
        </dc:creator>
        <dc:subject>
          <rdf:Bag>
            <rdf:li>computer</rdf:li>
            <rdf:li>desktop</rdf:li>
            <rdf:li>editorial pick</rdf:li>
            <rdf:li>glossy</rdf:li>
            <rdf:li>hardware</rdf:li>
            <rdf:li>workstation</rdf:li>
            <rdf:li>yellow</rdf:li>
          </rdf:Bag>
        </dc:subject>
      </cc:Work>
      <cc:License
         rdf:about="http://creativecommons.org/publicdomain/zero/1.0/">
        <cc:permits
           rdf:resource="http://creativecommons.org/ns#Reproduction" />
        <cc:permits
           rdf:resource="http://creativecommons.org/ns#Distribution" />
        <cc:permits
           rdf:resource="http://creativecommons.org/ns#DerivativeWorks" />
      </cc:License>
    </rdf:RDF>
  </metadata>
</svg>
